<?xml version="1.0" encoding="UTF-8" standalone="no"?>
<svg
   xmlns:dc="http://purl.org/dc/elements/1.1/"
   xmlns:cc="http://creativecommons.org/ns#"
   xmlns:rdf="http://www.w3.org/1999/02/22-rdf-syntax-ns#"
   xmlns:svg="http://www.w3.org/2000/svg"
   xmlns="http://www.w3.org/2000/svg"
   viewBox="0 0 420 276"
   height="276"
   width="420"
   xml:space="preserve"
   id="svg2"
   version="1.1"><metadata
     id="metadata8"><rdf:RDF><cc:Work
         rdf:about=""><dc:format>image/svg+xml</dc:format><dc:type
           rdf:resource="http://purl.org/dc/dcmitype/StillImage" /></cc:Work></rdf:RDF></metadata><defs
     id="defs6" /><g
     transform="matrix(1.3333333,0,0,-1.3333333,0,276)"
     id="g10"><g
       transform="scale(0.1)"
       id="g12"><path
         id="path14"
         style="fill:#eb1c8f;fill-opacity:1;fill-rule:evenodd;stroke:none"
         d="m 892.379,1099.45 c 0.281,0 13.519,-3.43 39.609,-10.27 26.102,-6.84 62.352,-17.7 108.632,-32.66 46.02,-14.92 99.5,-34.61 160.4,-59.219 60.58,-24.531 125.86,-54.371 195.82,-89.492 69.92,-35.11 141.71,-76.329 215.39,-123.547 -0.32,0.308 -7.11,13.828 -20.51,40.539 -13.36,26.449 -31.25,63.871 -53.6,112.39 -22.07,48.469 -46.48,105.699 -73.2,171.559 -26.76,65.9 -53.47,138.32 -80.23,217.27 -27.03,78.94 -51.92,162.1 -74.57,249.41 0,-0.59 1.87,-9.92 5.58,-27.97 3.71,-18.01 7.93,-41.95 12.62,-71.8 4.65,-29.49 8.83,-61.68 12.58,-96.48 4.02,-35.16 6.21,-69.65 6.48,-103.52 0.35,-33.86 -1.99,-64.33 -6.99,-91.36 -5.27,-26.76 -14.26,-46.96 -27.03,-60.63 -13.63,-13.05 -33.09,-22.69 -58.24,-28.9 -25.51,-6.53 -54.1,-10.59 -85.78,-12.11 -31.76,-1.88 -63.75,-2.04 -96.06,-0.47 -32.3,1.21 -61.99,3.28 -89.061,6.05 -27.379,2.78 -49.449,5.28 -66.207,7.46 -16.492,2.19 -25,3.4 -25.633,3.75" /><path
         id="path16"
         style="fill:#eb1c8f;fill-opacity:1;fill-rule:evenodd;stroke:none"
         d="m 1252.3,1265.39 c 8.4,-8.36 13.99,-18.01 16.8,-28.87 2.78,-10.9 2.78,-21.79 0,-32.65 -2.81,-11.17 -8.4,-20.98 -16.8,-29.38 -8.71,-8.4 -18.51,-13.98 -29.37,-16.76 -10.9,-2.81 -21.76,-2.81 -32.62,0 -10.9,2.78 -20.7,8.36 -29.41,16.76 -8.36,8.71 -13.99,18.48 -16.76,29.38 -2.81,10.86 -2.81,21.75 0,32.65 3.09,10.86 8.71,20.51 16.76,28.87 8.71,8.44 18.51,13.99 29.41,16.8 10.86,2.81 21.72,2.81 32.62,0 11.17,-2.81 20.98,-8.36 29.37,-16.8" /><path
         id="path18"
         style="fill:#35abe3;fill-opacity:1;fill-rule:evenodd;stroke:none"
         d="m 1288.67,74.1406 c 0,0.3477 3.4,13.5586 10.24,39.6484 6.87,26.133 17.73,62.191 32.65,108.16 14.92,46.332 34.69,99.93 59.22,160.86 24.53,60.632 54.38,125.902 89.49,195.82 35.16,69.961 76.33,141.723 123.56,215.43 -0.28,-0.348 -13.79,-7.18 -40.55,-20.539 -26.44,-13.36 -63.87,-31.219 -112.34,-53.641 -48.52,-22.027 -105.71,-46.438 -171.56,-73.16 C 1213.48,620 1141.02,593.09 1062.07,566.051 983.121,539.34 900,514.449 812.66,491.449 c 0.621,0.313 9.918,2.18 27.961,5.582 18.008,3.75 41.957,8.09 71.801,13.047 29.527,4.692 61.68,8.902 96.528,12.621 35.11,3.711 69.6,5.891 103.47,6.52 33.87,0.312 64.38,-1.989 91.41,-6.989 26.72,-5.281 46.95,-14.3 60.58,-27.031 13.05,-13.719 22.7,-33.25 28.95,-58.75 6.52,-25.199 10.55,-53.64 12.07,-85.32 1.91,-31.719 2.03,-63.75 0.47,-96.051 -1.21,-32.348 -3.24,-62.187 -6.02,-89.527 -2.5,-27.031 -5,-48.949 -7.5,-65.7502 -2.18,-16.75 -3.4,-25.3125 -3.71,-25.6602" /><path
         id="path20"
         style="fill:#35abe3;fill-opacity:1;fill-rule:evenodd;stroke:none"
         d="m 1123.16,434.102 c 8.4,8.398 18.05,13.988 28.91,16.796 10.86,2.813 21.76,2.813 32.62,0 11.17,-2.808 20.97,-8.398 29.41,-16.796 8.36,-8.364 13.99,-18.012 16.72,-28.903 2.81,-10.859 2.81,-21.758 0,-32.66 -2.73,-11.168 -8.36,-20.98 -16.72,-29.34 -8.71,-8.398 -18.51,-13.98 -29.41,-16.789 -10.86,-2.82 -21.76,-2.82 -32.62,0 -10.86,2.809 -20.51,8.391 -28.91,16.789 -8.39,8.711 -13.98,18.481 -16.79,29.34 -2.82,10.902 -2.82,21.801 0,32.66 2.81,10.891 8.4,20.539 16.79,28.903" /><path
         id="path22"
         style="fill:#54b84a;fill-opacity:1;fill-rule:evenodd;stroke:none"
         d="m 2319.96,483.551 c -0.27,0 -13.48,3.398 -39.61,10.238 -26.13,6.832 -62.15,17.731 -108.16,32.621 -46.33,14.918 -99.92,34.68 -160.82,59.211 -60.63,24.578 -125.9,54.379 -195.82,89.539 -69.96,35.11 -141.8,76.32 -215.43,123.551 0.31,-0.313 7.15,-13.832 20.5,-40.59 13.36,-26.402 31.26,-63.859 53.64,-112.34 22.07,-48.48 46.44,-105.66 73.2,-171.562 26.72,-65.899 53.59,-138.36 80.63,-217.27 26.75,-78.937 51.64,-162.1092 74.61,-249.449 -0.28,0.62109 -2.19,9.9609 -5.59,27.9688 -3.75,18.0507 -8.09,41.9531 -13.05,71.8012 -4.68,29.531 -8.86,61.71 -12.58,96.519 -3.75,34.84 -5.93,69.332 -6.56,103.481 -0.27,33.902 2.03,64.21 6.99,90.929 5.28,27.071 14.34,47.422 27.07,61.102 13.68,13.039 33.25,22.648 58.75,28.898 25.16,6.531 53.64,10.551 85.32,12.11 31.68,1.882 63.71,2.031 96.05,0.472 32.31,-1.25 62.15,-3.242 89.49,-6.051 27.07,-2.82 48.95,-5.281 65.75,-7.46 16.79,-2.192 25.35,-3.442 25.62,-3.719" /><path
         id="path24"
         style="fill:#54b84a;fill-opacity:1;fill-rule:evenodd;stroke:none"
         d="m 1960.08,317.07 c -8.44,8.711 -13.99,18.52 -16.8,29.41 -2.81,10.86 -2.81,21.719 0,32.622 2.81,10.859 8.36,20.507 16.8,28.91 8.36,8.398 18.01,13.976 28.87,16.758 10.89,2.808 21.79,2.808 32.65,0 11.17,-2.782 20.98,-8.36 29.38,-16.758 8.4,-8.403 13.98,-18.051 16.75,-28.91 2.82,-10.903 2.82,-21.762 0,-32.622 -2.77,-11.25 -8.35,-20.968 -16.75,-29.41 -8.71,-8.359 -18.52,-13.98 -29.38,-16.8 -10.86,-2.77 -21.76,-2.77 -32.65,0 -10.86,2.82 -20.51,8.441 -28.87,16.8" /><path
         id="path26"
         style="fill:#f36e28;fill-opacity:1;fill-rule:evenodd;stroke:none"
         d="m 1917.15,1514.41 c 0,-0.35 -3.4,-13.55 -10.27,-39.64 -6.8,-26.14 -17.7,-62.31 -32.62,-108.68 -14.92,-45.97 -34.65,-99.41 -59.22,-160.35 -24.53,-60.62 -54.42,-125.9 -89.53,-195.82 -35.08,-69.959 -76.29,-141.76 -123.56,-215.432 0.35,0.313 13.87,7.192 40.59,20.551 26.41,13.359 63.87,31.211 112.38,53.633 48.48,22.027 105.67,46.449 171.56,73.168 65.9,26.711 138.32,53.469 217.27,80.19 78.95,27.03 162.11,51.92 249.45,74.61 -0.62,0 -9.96,-1.87 -27.97,-5.62 -18.04,-3.72 -41.99,-7.9 -71.79,-12.54 -29.57,-4.69 -61.72,-9.07 -96.53,-13.09 -34.84,-3.71 -69.33,-5.74 -103.51,-6.05 -33.91,-0.32 -64.18,1.99 -90.94,6.99 -27.03,5.27 -47.38,14.29 -61.05,27.03 -13.09,13.71 -22.7,33.12 -28.91,58.28 -6.52,25.51 -10.59,54.1 -12.15,85.78 -1.83,31.72 -1.99,63.75 -0.47,96.06 1.29,32.34 3.28,62.03 6.1,89.06 2.81,27.34 5.27,49.41 7.46,66.21 2.15,16.48 3.4,25.04 3.71,25.66" /><path
         id="path28"
         style="fill:#f36e28;fill-opacity:1;fill-rule:evenodd;stroke:none"
         d="m 2083.63,1154.45 c -8.71,-8.4 -18.51,-13.98 -29.41,-16.79 -10.86,-2.82 -21.76,-2.82 -32.62,0 -10.86,2.81 -20.66,8.39 -29.37,16.79 -8.4,8.71 -13.99,18.52 -16.8,29.34 -2.81,10.9 -2.81,21.8 0,32.66 3.09,10.89 8.71,20.54 16.8,28.9 8.71,8.4 18.51,13.99 29.37,16.8 10.86,2.81 21.76,2.81 32.62,0 11.17,-2.81 20.98,-8.4 29.41,-16.8 8.36,-8.36 13.99,-18.01 16.76,-28.9 2.77,-10.86 2.77,-21.76 0,-32.66 -2.77,-11.17 -8.4,-20.98 -16.76,-29.34" /><path
         id="path30"
         style="fill:#259dd4;fill-opacity:1;fill-rule:nonzero;stroke:none"
         d="m 11.6797,943.871 c 5.8594,19.141 15.3906,37.07 28.5898,53.75 l 18.6016,-13.91 c -12.3906,-17.191 -20.7109,-32.93 -25,-47.191 -3.6406,-11.872 -4.6094,-23.59 -2.9727,-35.149 1.6797,-11.57 5.4297,-21.883 11.25,-30.941 5.8633,-8.981 13.2813,-16.879 22.3399,-23.75 8.9922,-6.801 18.9922,-11.84 30,-15.16 11.4917,-3.43 22.9727,-4.758 34.5317,-3.899 11.492,0.93 22.191,3.828 32.191,8.75 9.918,4.879 18.668,11.949 26.41,21.25 7.809,9.367 13.629,20.469 17.5,33.277 4.57,15.192 6.399,31.911 5.469,50.153 l 21.09,2.039 c 2.582,-23.36 0.82,-45.238 -5.309,-65.629 -3.871,-12.731 -9.301,-24.063 -16.25,-34.063 -7,-9.918 -15,-17.968 -24.07,-24.218 -9.063,-6.25 -18.942,-11.02 -29.68,-14.219 -10.82,-3.121 -22.07,-4.652 -33.75,-4.531 -11.762,0.191 -23.6015,2.109 -35.4726,5.781 -20.3086,6.129 -37.2265,15.859 -50.7773,29.219 -13.5195,13.32 -22.582,29.41 -27.19141,48.281 -4.69141,18.949 -3.82813,38.988 2.50001,60.16 z" /><path
         id="path32"
         style="fill:#259dd4;fill-opacity:1;fill-rule:nonzero;stroke:none"
         d="m 131.051,1216.95 11.57,23.44 197.027,-97.81 -11.558,-23.44 -91.25,45.31 -52.352,-105.47 91.25,-45.31 -11.718,-23.588 -197.0317,97.808 11.7226,23.59 85.0001,-42.18 52.34,105.47 z" /><path
         id="path34"
         style="fill:#259dd4;fill-opacity:1;fill-rule:nonzero;stroke:none"
         d="M 202.539,1333.28 217.07,1355 400.039,1232.81 385.512,1211.09 Z" /><path
         id="path36"
         style="fill:#259dd4;fill-opacity:1;fill-rule:nonzero;stroke:none"
         d="m 278.629,1439.65 16.723,20.47 151.878,-125.32 62.969,76.1 17.813,-14.69 -79.692,-96.56 z" /><path
         id="path38"
         style="fill:#259dd4;fill-opacity:1;fill-rule:nonzero;stroke:none"
         d="m 451.129,1596.52 115.781,-129.06 23.91,21.41 c 3.442,3.01 6.25,5.54 8.442,7.65 2.187,2.19 5.039,5.16 8.59,8.91 3.628,3.83 6.488,7.38 8.597,10.62 2.071,3.33 4.211,7.35 6.403,12.04 2.269,4.68 3.91,9.29 4.847,13.9 0.93,4.57 1.281,9.69 1.09,15.31 -0.117,5.71 -0.937,11.61 -2.5,17.66 -3.668,14.26 -11.719,28.32 -24.219,42.19 -8.75,9.69 -18.05,17.19 -27.808,22.5 -9.813,5.31 -19.223,8.32 -28.282,9.06 -8.992,0.7 -17.351,0.08 -25.16,-1.87 -7.808,-1.88 -15.039,-4.93 -21.718,-9.07 -3.942,-2.42 -9.372,-6.68 -16.25,-12.81 z m 15.473,45.16 c 10.628,9.57 21.25,17.19 31.878,22.81 10.54,5.63 20.469,9.1 29.84,10.47 9.258,1.45 18.16,1.64 26.719,0.63 8.633,-1.06 16.762,-3.52 24.371,-7.35 7.699,-3.75 14.692,-8.04 20.942,-12.81 6.25,-4.81 12.187,-10.27 17.808,-16.41 6.328,-7.18 11.961,-14.61 16.879,-22.18 4.883,-7.62 9.063,-16.06 12.5,-25.32 3.441,-9.18 5.512,-18.36 6.25,-27.5 0.82,-9.06 -0.078,-18.71 -2.66,-28.9 -2.609,-10.12 -7.18,-19.96 -13.75,-29.53 -3.238,-4.93 -7.258,-10 -12.027,-15.32 -4.801,-5.31 -8.903,-9.61 -12.34,-12.81 -3.442,-3.12 -8.364,-7.5 -14.692,-13.12 l -35.308,-31.88 -147.032,163.75 z" /><path
         id="path40"
         style="fill:#259dd4;fill-opacity:1;fill-rule:nonzero;stroke:none"
         d="m 790.859,1804.84 c 3.832,-6.17 6.801,-12.5 8.911,-19.06 2.07,-6.48 3.16,-13.24 3.281,-20.31 0.07,-6.99 -1.492,-14.06 -4.692,-21.25 -3.238,-7.19 -7.968,-14.06 -14.218,-20.63 l 103.129,-46.56 -24.848,-15.62 -99.692,45.47 -35.781,-22.82 49.223,-77.5 -22.5,-14.22 -117.973,185.78 68.281,43.29 c 3.129,1.95 6.059,3.63 8.75,5 2.622,1.44 6.141,3.04 10.629,4.84 4.45,1.87 8.59,3.13 12.34,3.75 3.832,0.62 8.211,0.66 13.129,0.16 5,-0.43 9.723,-1.64 14.223,-3.6 4.57,-1.99 9.25,-5.27 14.058,-9.84 4.77,-4.49 9.371,-10.12 13.75,-16.88 z m -76.25,-101.4 31.871,20.31 c 4.461,2.81 8.29,5.39 11.411,7.81 3.199,2.5 6.718,5.86 10.468,10.16 3.75,4.37 6.332,8.67 7.813,12.97 1.558,4.26 1.918,9.37 1.098,15.31 -0.75,5.94 -3.129,12.07 -7.192,18.44 -2.738,4.37 -5.777,7.97 -9.219,10.78 -3.437,2.81 -6.8,4.84 -10,6.09 -3.129,1.25 -6.519,1.92 -10.16,2.03 -3.668,0.08 -6.949,-0.23 -9.84,-0.93 -2.808,-0.63 -5.898,-1.64 -9.218,-2.97 -3.243,-1.25 -5.782,-2.42 -7.661,-3.44 -1.871,-0.94 -3.82,-2.11 -5.929,-3.44 l -37.352,-23.75 z" /><path
         id="path42"
         style="fill:#259dd4;fill-opacity:1;fill-rule:nonzero;stroke:none"
         d="m 945.738,1705.31 -89.058,201.25 118.121,52.19 9.539,-21.41 -93.91,-41.56 28.91,-65.47 86.09,38.13 9.53,-21.41 -86.089,-38.12 31.719,-71.72 93.9,41.56 9.38,-21.25 z" /><path
         id="path44"
         style="fill:#259dd4;fill-opacity:1;fill-rule:nonzero;stroke:none"
         d="m 1074.41,1994.18 32.19,8.44 162.19,-147.97 -46.25,178.12 25.62,6.57 55.32,-212.97 -32.19,-8.28 -162.5,148.28 46.41,-178.44 -25.47,-6.72 z" /><path
         id="path46"
         style="fill:#259dd4;fill-opacity:1;fill-rule:nonzero;stroke:none"
         d="m 1427.19,2063.71 173.28,6.25 0.78,-23.28 -73.44,-2.66 7.19,-196.56 -26.25,-0.94 -7.19,196.57 -73.59,-2.66 z" /><path
         id="path48"
         style="fill:#259dd4;fill-opacity:1;fill-rule:nonzero;stroke:none"
         d="m 1772.77,2057.5 c 14.38,-1.8 27.54,-6.02 39.53,-12.66 11.96,-6.56 21.96,-15.07 30,-25.46 8.13,-10.32 13.95,-22.66 17.5,-37.04 3.52,-14.37 4.3,-29.84 2.35,-46.4 -2.74,-22.42 -9.61,-41.72 -20.63,-57.97 -11.05,-16.25 -25,-28.17 -41.87,-35.78 -16.88,-7.58 -35.24,-10.2 -55,-7.81 -13.13,1.67 -25.43,5.58 -36.88,11.71 -11.48,6.06 -21.48,14.11 -30,24.22 -8.43,10.08 -14.68,22.66 -18.75,37.66 -4.06,15.08 -5,31.64 -2.81,49.69 2.07,16.95 6.6,32.11 13.59,45.46 6.96,13.44 15.55,24.38 25.79,32.82 10.19,8.51 21.91,14.68 35.15,18.44 13.32,3.82 27.35,4.88 42.03,3.12 z m -4.06,-22.81 c -9.37,1.01 -18.59,0.35 -27.66,-2.03 -9.06,-2.43 -17.61,-6.57 -25.62,-12.5 -7.93,-5.86 -14.81,-14.14 -20.63,-24.85 -5.85,-10.74 -9.6,-23.24 -11.25,-37.5 -1.67,-13.67 -1.21,-26.52 1.41,-38.59 2.7,-11.99 6.95,-22.31 12.81,-30.94 5.94,-8.67 13.32,-15.7 22.19,-21.09 8.83,-5.43 18.67,-8.75 29.53,-10 7.19,-0.94 14.42,-0.78 21.72,0.47 7.27,1.32 14.41,3.94 21.41,7.81 7.07,3.94 13.43,8.98 19.06,15.15 5.7,6.14 10.62,13.99 14.69,23.6 4.14,9.57 6.95,20.31 8.43,32.19 1.45,12.07 1.25,23.32 -0.62,33.75 -1.88,10.5 -4.96,19.41 -9.22,26.72 -4.18,7.38 -9.34,13.78 -15.47,19.21 -6.17,5.39 -12.65,9.61 -19.53,12.66 -6.87,3.01 -13.98,5 -21.25,5.94 z" /><path
         id="path50"
         style="fill:#259dd4;fill-opacity:1;fill-rule:nonzero;stroke:none"
         d="m 2071.29,1989.8 68.28,-24.84 c 3.2,-1.17 5.82,-2.15 7.81,-2.97 2.07,-0.86 5,-2.15 8.75,-3.9 3.83,-1.68 7.07,-3.36 9.69,-5 2.7,-1.68 5.7,-3.91 9.06,-6.72 3.32,-2.74 6.02,-5.43 8.13,-8.13 2.19,-2.73 4.14,-6.05 5.94,-10 1.87,-3.86 3.04,-7.89 3.59,-12.03 0.62,-4.18 0.62,-8.98 0,-14.37 -0.55,-5.32 -1.88,-10.94 -4.06,-16.88 -3.13,-8.55 -6.96,-15.9 -11.41,-22.03 -4.37,-6.05 -8.91,-10.78 -13.59,-14.22 -4.69,-3.44 -10.12,-5.94 -16.25,-7.5 -6.06,-1.48 -11.8,-2.26 -17.19,-2.34 -5.43,-0.12 -11.56,0.51 -18.44,1.87 -6.8,1.33 -12.77,2.81 -17.97,4.38 -5.11,1.56 -11.05,3.59 -17.81,6.09 -6.56,2.38 -14.34,5.55 -23.28,9.53 l -31.56,-86.72 -24.85,9.07 z m -10.94,-107.18 c 9.06,-4.18 17.74,-7.78 26.1,-10.78 4.76,-1.8 8.75,-3.21 11.87,-4.22 3.2,-1.06 7.23,-2.15 12.03,-3.28 4.88,-1.18 9.06,-1.8 12.5,-1.88 3.52,0 7.42,0.31 11.72,0.94 4.26,0.7 7.89,2.11 10.94,4.22 3.12,2.07 6.13,4.92 9.06,8.59 2.89,3.75 5.35,8.32 7.34,13.75 1.96,5.63 3.01,10.86 3.13,15.78 0.08,4.88 -0.74,9.14 -2.5,12.81 -1.8,3.64 -3.91,6.8 -6.41,9.54 -2.42,2.69 -5.7,5.19 -9.84,7.5 -4.06,2.38 -7.66,4.25 -10.78,5.62 -3.13,1.45 -6.96,3.01 -11.41,4.69 l -35.94,12.97 z" /><path
         id="path52"
         style="fill:#259dd4;fill-opacity:1;fill-rule:nonzero;stroke:none"
         d="m 2392.97,1776.33 c -3.56,-6.37 -7.74,-12.03 -12.5,-17.03 -4.69,-4.92 -10.12,-9.07 -16.25,-12.5 -6.06,-3.44 -13.05,-5.55 -20.94,-6.25 -7.81,-0.75 -16.05,0.07 -24.69,2.5 l 8.91,-112.66 -25.78,14.06 -8.28,109.22 -37.19,20.31 -44.06,-80.46 -23.28,12.81 105.78,192.97 70.78,-38.75 c 3.32,-1.88 6.25,-3.67 8.75,-5.32 2.5,-1.68 5.55,-4.02 9.22,-7.03 3.75,-3.04 6.79,-6.05 9.22,-9.06 2.5,-3.05 4.72,-6.84 6.72,-11.41 2.07,-4.61 3.28,-9.33 3.59,-14.21 0.31,-4.81 -0.31,-10.43 -1.88,-16.88 -1.56,-6.48 -4.29,-13.24 -8.12,-20.31 z m -125.63,17.97 33.13,-18.13 c 4.69,-2.5 8.83,-4.61 12.5,-6.25 3.75,-1.56 8.36,-2.97 13.91,-4.22 5.5,-1.17 10.5,-1.4 15,-0.78 4.45,0.7 9.1,2.85 13.9,6.41 4.77,3.51 8.99,8.63 12.66,15.31 2.5,4.45 4.14,8.91 5,13.28 0.82,4.38 1.01,8.28 0.62,11.72 -0.43,3.44 -1.52,6.72 -3.28,9.84 -1.68,3.21 -3.51,5.94 -5.47,8.13 -1.87,2.27 -4.18,4.53 -6.87,6.72 -2.74,2.19 -5,3.83 -6.88,5 -1.79,1.25 -3.75,2.42 -5.94,3.59 l -38.74,21.25 z" /><path
         id="path54"
         style="fill:#259dd4;fill-opacity:1;fill-rule:nonzero;stroke:none"
         d="m 2591.84,1710.51 c 11.32,-9.06 20.35,-19.53 27.03,-31.41 6.75,-11.8 10.86,-24.22 12.34,-37.34 1.56,-13.05 0.04,-26.56 -4.53,-40.63 -4.49,-14.14 -11.95,-27.81 -22.34,-40.93 -13.99,-17.58 -29.93,-30.47 -47.82,-38.6 -17.93,-8.12 -36.05,-10.98 -54.37,-8.59 -18.36,2.42 -35.31,9.84 -50.94,22.34 -10.31,8.24 -18.75,17.97 -25.31,29.22 -6.56,11.17 -10.86,23.28 -12.81,36.41 -2,13.04 -0.75,26.95 3.75,41.87 4.57,15 12.5,29.57 23.75,43.75 10.62,13.32 22.38,23.83 35.31,31.56 12.89,7.82 25.94,12.66 39.06,14.54 13.2,1.95 26.45,1.01 39.69,-2.82 13.2,-3.75 25.62,-10.23 37.19,-19.37 z m -15.47,-17.19 c -7.31,5.82 -15.47,10.04 -24.53,12.66 -8.99,2.69 -18.4,3.67 -28.29,2.97 -9.8,-0.75 -20,-4.22 -30.62,-10.47 -10.55,-6.18 -20.27,-14.85 -29.22,-26.1 -8.55,-10.74 -14.84,-21.95 -18.91,-33.59 -3.98,-11.56 -5.74,-22.54 -5.31,-32.97 0.39,-10.39 3.01,-20.23 7.81,-29.53 4.77,-9.26 11.41,-17.27 19.85,-24.06 5.7,-4.57 11.95,-8.21 18.75,-10.94 6.87,-2.7 14.3,-4.22 22.34,-4.53 8.13,-0.39 16.17,0.54 24.22,2.81 8.13,2.19 16.45,6.33 25,12.34 8.52,5.94 16.49,13.6 23.91,22.97 7.58,9.61 13.32,19.34 17.18,29.22 3.83,9.81 5.86,18.91 6.1,27.35 0.31,8.51 -0.74,16.75 -3.13,24.68 -2.42,7.89 -5.74,14.92 -10,21.1 -4.29,6.13 -9.33,11.48 -15.15,16.09 z" /><path
         id="path56"
         style="fill:#259dd4;fill-opacity:1;fill-rule:nonzero;stroke:none"
         d="m 2799.8,1511.37 c 11.33,-12.62 21.33,-28.13 30,-46.57 l -23.43,-9.84 c -8.56,17.38 -17.35,31.09 -26.41,41.09 -10.23,11.45 -21.25,18.95 -33.12,22.5 -11.88,3.52 -21.64,1.92 -29.22,-4.84 -4.18,-3.75 -6.8,-8.4 -7.82,-13.91 -0.93,-5.54 -0.62,-11.32 0.94,-17.34 1.64,-5.94 3.83,-12.5 6.56,-19.69 2.82,-7.07 5.82,-14.14 9.07,-21.25 3.2,-7.07 5.86,-14.37 7.97,-21.87 2.18,-7.58 3.51,-14.88 4.06,-21.88 0.62,-6.95 -0.39,-13.94 -2.97,-20.93 -2.62,-6.96 -7.11,-13.32 -13.44,-19.07 -4.37,-3.94 -9.37,-7.18 -15,-9.68 -5.62,-2.5 -12.03,-4.07 -19.22,-4.69 -7.11,-0.63 -14.37,0 -21.87,1.87 -7.42,1.88 -15.39,5.59 -23.91,11.1 -8.55,5.43 -16.83,12.58 -24.84,21.4 -8.05,8.87 -14.49,17.89 -19.38,27.03 -4.8,9.18 -9.61,20 -14.37,32.5 l 25,10.63 c 10.08,-25.7 20.19,-44.14 30.31,-55.31 10.39,-11.57 21.17,-18.91 32.34,-22.03 11.25,-3.13 20.83,-1.14 28.75,5.93 5.2,4.69 8.21,10.39 9.07,17.03 0.93,6.68 0.19,13.68 -2.19,20.94 -2.3,7.19 -5.27,14.92 -8.91,23.13 -3.55,8.12 -6.99,16.36 -10.31,24.68 -3.36,8.32 -5.78,16.45 -7.34,24.38 -1.49,8.01 -1.06,15.98 1.25,23.91 2.26,7.89 6.95,15.07 14.06,21.56 6.25,5.62 13.59,9.45 22.03,11.56 8.44,2.19 17.19,2.54 26.25,1.09 9.14,-1.48 18.67,-5.07 28.59,-10.78 9.89,-5.74 19.07,-13.28 27.5,-22.65 z" /><path
         id="path58"
         style="fill:#259dd4;fill-opacity:1;fill-rule:nonzero;stroke:none"
         d="m 2898.95,1384.53 40.15,-60.62 c 1.88,-2.82 3.36,-5.16 4.53,-7.03 1.14,-1.8 2.74,-4.54 4.85,-8.29 2.07,-3.75 3.63,-7.03 4.68,-9.84 1.14,-2.89 2.23,-6.45 3.29,-10.63 1.01,-4.14 1.6,-7.96 1.71,-11.4 0.08,-3.44 -0.27,-7.27 -1.09,-11.56 -0.86,-4.38 -2.27,-8.32 -4.22,-11.88 -1.99,-3.63 -4.84,-7.42 -8.59,-11.4 -3.67,-3.95 -8.13,-7.7 -13.44,-11.26 -7.62,-5 -15,-8.63 -22.19,-10.93 -7.18,-2.27 -13.71,-3.36 -19.53,-3.28 -5.74,0 -11.52,1.21 -17.34,3.59 -5.86,2.42 -10.94,5.16 -15.31,8.28 -4.38,3.13 -8.91,7.27 -13.6,12.34 -4.69,5.12 -8.67,9.85 -11.87,14.22 -3.13,4.38 -6.68,9.54 -10.63,15.47 -3.87,5.86 -8.28,13.05 -13.28,21.57 l -76.87,-50.94 -14.54,22.03 z m -72.5,-79.69 c 4.76,-8.75 9.6,-16.79 14.53,-24.22 2.81,-4.25 5.19,-7.73 7.18,-10.46 1.96,-2.82 4.57,-6.1 7.82,-9.85 3.2,-3.75 6.17,-6.64 8.9,-8.75 2.7,-2.18 5.98,-4.26 9.85,-6.25 3.82,-1.95 7.57,-3.01 11.25,-3.12 3.75,-0.2 7.89,0.31 12.5,1.56 4.57,1.25 9.25,3.52 14.06,6.72 5,3.36 8.94,6.95 11.87,10.78 2.89,3.75 4.73,7.66 5.47,11.72 0.71,3.98 0.94,7.77 0.63,11.41 -0.31,3.67 -1.41,7.65 -3.28,12.03 -1.88,4.25 -3.71,7.89 -5.47,10.93 -1.68,3.01 -3.83,6.49 -6.41,10.47 l -21.25,31.88 z" /><path
         id="path60"
         style="fill:#259dd4;fill-opacity:1;fill-rule:nonzero;stroke:none"
         d="m 2824.65,1086.52 198.9,94.07 55.16,-116.72 -21.09,-9.85 -43.91,92.82 -64.84,-30.79 40.31,-85 -21.09,-9.84 -40.32,85 -70.78,-33.59 43.91,-92.819 -21.1,-10 z" /><path
         id="path62"
         style="fill:#259dd4;fill-opacity:1;fill-rule:nonzero;stroke:none"
         d="m 3099.14,811.211 c -6.99,-2.07 -13.91,-3.199 -20.78,-3.441 -6.88,-0.309 -13.75,0.468 -20.63,2.351 -6.79,1.789 -13.24,5.231 -19.37,10.309 -6.06,5 -11.33,11.371 -15.78,19.058 l -72.66,-86.558 -8.44,28.121 70.63,83.597 -12.19,40.622 -87.81,-26.399 -7.66,25.469 210.63,63.43 23.28,-77.34 c 1.02,-3.52 1.87,-6.801 2.5,-9.84 0.7,-3.008 1.33,-6.879 1.87,-11.57 0.51,-4.68 0.55,-8.938 0.16,-12.809 -0.43,-3.941 -1.52,-8.199 -3.28,-12.813 -1.8,-4.687 -4.3,-8.91 -7.5,-12.66 -3.13,-3.75 -7.5,-7.34 -13.13,-10.777 -5.62,-3.512 -12.26,-6.441 -19.84,-8.75 z m -77.03,100.777 10.78,-36.09 c 1.56,-5.078 3.05,-9.527 4.53,-13.277 1.56,-3.75 3.83,-7.973 6.88,-12.66 3.12,-4.762 6.56,-8.481 10.31,-11.09 3.75,-2.699 8.59,-4.461 14.53,-5.32 5.94,-0.821 12.42,-0.153 19.53,2.039 5,1.48 9.3,3.512 12.97,6.09 3.63,2.5 6.48,5.16 8.59,7.968 2.07,2.731 3.64,5.782 4.69,9.223 1.02,3.43 1.6,6.68 1.72,9.68 0.2,2.929 0.08,6.097 -0.31,9.539 -0.31,3.43 -0.74,6.25 -1.25,8.43 -0.43,2.109 -1.02,4.339 -1.72,6.718 l -12.66,42.352 z" /></g></g></svg>